<svg version="1.1" xmlns="http://www.w3.org/2000/svg" xmlns:xlink="http://www.w3.org/1999/xlink" x="0px" y="0px" width="101" height="128" viewBox="0 0 101.029 128.034" enable-background="new 0 0 101.029 128.034" xml:space="preserve">
            <path d="M92.168,31.617c-0.143-1.475-1.382-2.604-2.864-2.604H70.343v-9.748C70.343,8.641,61.697,0,51.076,0
                C40.451,0,31.806,8.641,31.806,19.266v9.748h-20.08c-1.482,0-2.723,1.129-2.865,2.604l-8.849,93.27
                c-0.073,0.808,0.19,1.608,0.739,2.208c0.544,0.599,1.318,0.939,2.125,0.939h95.276c0.808,0,1.581-0.341,2.126-0.939
                c0.549-0.6,0.813-1.4,0.738-2.208L92.168,31.617z M37.561,19.266c0-7.451,6.062-13.516,13.516-13.516
                c7.449,0,13.512,6.065,13.512,13.516v9.748H37.561V19.266z M6.04,122.283l8.3-87.518h20.343h32.783h19.223l8.301,87.518H6.04z" stroke="#2F3327" fill="#2F3327"></path>
        </svg>